<svg width="44" height="43" viewBox="0 0 44 43" fill="none" xmlns="http://www.w3.org/2000/svg">
<path d="M0.242981 21.1535C0.242981 32.7885 9.83049 42.2206 21.6573 42.2206C33.4841 42.2206 43.0716 32.7885 43.0716 21.1535C43.0716 9.51847 33.4841 0.0864258 21.6573 0.0864258C9.83049 0.0864258 0.242981 9.51847 0.242981 21.1535Z" fill="#1877F2"/>
<path d="M32.3644 21.1534C32.3644 15.36 27.5462 10.6199 21.6573 10.6199C15.7683 10.6199 10.9501 15.36 10.9501 21.1534C10.9501 26.4202 14.8315 30.7653 19.9174 31.5553V24.1818H17.2406V21.1534H19.9174V18.7834C19.9174 16.15 21.5234 14.7016 23.9325 14.7016C25.1371 14.7016 26.3417 14.965 26.3417 14.965V17.5983H25.0033C23.6649 17.5983 23.2634 18.3884 23.2634 19.1784V21.1534H26.2078L25.6725 24.1818H23.1295V31.6869C28.4831 30.8969 32.3644 26.4202 32.3644 21.1534Z" fill="white"/>
</svg>
