<svg width="43" height="43" viewBox="0 0 43 43" fill="none" xmlns="http://www.w3.org/2000/svg">
<path d="M0 21.1535C0 32.7885 9.58751 42.2206 21.4143 42.2206C33.2411 42.2206 42.8286 32.7885 42.8286 21.1535C42.8286 9.51847 33.2411 0.0864258 21.4143 0.0864258C9.58751 0.0864258 0 9.51847 0 21.1535Z" fill="#F00073"/>
<path d="M21.4143 12.1999C24.3587 12.1999 24.7603 12.1999 25.9648 12.1999C27.0355 12.1999 27.5709 12.4632 27.9724 12.5949C28.5078 12.8582 28.9093 12.9899 29.3108 13.3849C29.7123 13.7799 29.98 14.1749 30.1138 14.7016C30.2477 15.0966 30.3815 15.6233 30.5153 16.6766C30.5153 17.8617 30.5153 18.125 30.5153 21.1534C30.5153 24.1818 30.5153 24.4451 30.5153 25.6302C30.5153 26.6835 30.2477 27.2102 30.1138 27.6052C29.8461 28.1319 29.7123 28.5269 29.3108 28.9219C28.9093 29.3169 28.5078 29.5802 27.9724 29.7119C27.5709 29.8436 27.0355 29.9752 25.9648 30.1069C24.7603 30.1069 24.4926 30.1069 21.4143 30.1069C18.336 30.1069 18.0683 30.1069 16.8637 30.1069C15.793 30.1069 15.2577 29.8436 14.8561 29.7119C14.3208 29.4486 13.9193 29.3169 13.5177 28.9219C13.1162 28.5269 12.8486 28.1319 12.7147 27.6052C12.5809 27.2102 12.447 26.6835 12.3132 25.6302C12.3132 24.4451 12.3132 24.1818 12.3132 21.1534C12.3132 18.125 12.3132 17.8617 12.3132 16.6766C12.3132 15.6233 12.5809 15.0966 12.7147 14.7016C12.9824 14.1749 13.1162 13.7799 13.5177 13.3849C13.9193 12.9899 14.3208 12.7266 14.8561 12.5949C15.2577 12.4632 15.793 12.3316 16.8637 12.1999C18.0683 12.1999 18.4698 12.1999 21.4143 12.1999ZM21.4143 10.2249C18.336 10.2249 18.0683 10.2249 16.8637 10.2249C15.6592 10.2249 14.8561 10.4882 14.1869 10.7515C13.5177 11.0149 12.8486 11.4099 12.1794 12.0682C11.5102 12.7266 11.2425 13.2532 10.841 14.0433C10.5733 14.7016 10.4394 15.4916 10.3056 16.6766C10.3056 17.8617 10.3056 18.2567 10.3056 21.1534C10.3056 24.1818 10.3056 24.4451 10.3056 25.6302C10.3056 26.8152 10.5733 27.6052 10.841 28.2635C11.1086 28.9219 11.5102 29.5802 12.1794 30.2386C12.8486 30.8969 13.3839 31.1603 14.1869 31.5553C14.8561 31.8186 15.6592 31.9503 16.8637 32.0819C18.0683 32.0819 18.4698 32.0819 21.4143 32.0819C24.3587 32.0819 24.7603 32.0819 25.9648 32.0819C27.1694 32.0819 27.9724 31.8186 28.6416 31.5553C29.3108 31.2919 29.98 30.8969 30.6492 30.2386C31.3184 29.5802 31.5861 29.0536 31.9876 28.2635C32.2553 27.6052 32.3891 26.8152 32.5229 25.6302C32.5229 24.4451 32.5229 24.0501 32.5229 21.1534C32.5229 18.2567 32.5229 17.8617 32.5229 16.6766C32.5229 15.4916 32.2553 14.7016 31.9876 14.0433C31.7199 13.3849 31.3184 12.7266 30.6492 12.0682C29.98 11.4099 29.4446 11.1465 28.6416 10.7515C27.9724 10.4882 27.1694 10.3565 25.9648 10.2249C24.7603 10.2249 24.4926 10.2249 21.4143 10.2249Z" fill="white"/>
<path d="M21.4143 15.4916C18.2021 15.4916 15.6592 17.9933 15.6592 21.1534C15.6592 24.3135 18.2021 26.8152 21.4143 26.8152C24.6264 26.8152 27.1694 24.3135 27.1694 21.1534C27.1694 17.9933 24.6264 15.4916 21.4143 15.4916ZM21.4143 24.8401C19.4067 24.8401 17.6668 23.2601 17.6668 21.1534C17.6668 19.1784 19.2728 17.4667 21.4143 17.4667C23.4219 17.4667 25.1618 19.0467 25.1618 21.1534C25.1618 23.1284 23.4219 24.8401 21.4143 24.8401Z" fill="white"/>
<path d="M27.3032 16.6766C28.0424 16.6766 28.6416 16.0871 28.6416 15.36C28.6416 14.6328 28.0424 14.0433 27.3032 14.0433C26.564 14.0433 25.9648 14.6328 25.9648 15.36C25.9648 16.0871 26.564 16.6766 27.3032 16.6766Z" fill="white"/>
</svg>
