<svg width="44" height="43" viewBox="0 0 44 43" fill="none" xmlns="http://www.w3.org/2000/svg">
<path d="M0.48584 21.1535C0.48584 32.7885 10.0733 42.2206 21.9001 42.2206C33.7269 42.2206 43.3144 32.7885 43.3144 21.1535C43.3144 9.51847 33.7269 0.0864258 21.9001 0.0864258C10.0733 0.0864258 0.48584 9.51847 0.48584 21.1535Z" fill="#2867B2"/>
<path d="M16.0112 31.6869H11.4607V17.5983H16.0112V31.6869ZM13.7359 15.6233C12.2637 15.6233 11.193 14.5699 11.193 13.1216C11.193 11.6732 12.3975 10.6199 13.7359 10.6199C15.2082 10.6199 16.2789 11.6732 16.2789 13.1216C16.2789 14.5699 15.2082 15.6233 13.7359 15.6233ZM32.6073 31.6869H28.0568V24.0501C28.0568 21.8118 27.1199 21.1534 25.7815 21.1534C24.4431 21.1534 23.1047 22.2068 23.1047 24.1818V31.6869H18.5542V17.5983H22.837V19.5734C23.2385 18.6517 24.8446 17.2033 27.1199 17.2033C29.6628 17.2033 32.3396 18.6517 32.3396 22.9968V31.6869H32.6073Z" fill="white"/>
</svg>
