<?xml version="1.0" encoding="utf-8"?>
<!-- Generator: Adobe Illustrator 26.0.3, SVG Export Plug-In . SVG Version: 6.00 Build 0)  -->
<svg version="1.1" id="Camada_1" xmlns="http://www.w3.org/2000/svg" xmlns:xlink="http://www.w3.org/1999/xlink" x="0px" y="0px"
	 viewBox="0 0 506 161" style="enable-background:new 0 0 506 161;" xml:space="preserve">
<style type="text/css">
	.st0{fill:#FFFFFF;}
	.st1{fill:url(#SVGID_1_);}
	.st2{fill:url(#SVGID_00000002364786474105964990000015313712697782055598_);}
	.st3{fill:url(#SVGID_00000057857643518138213630000004382635057400605074_);}
	.st4{fill:url(#SVGID_00000097484240933356851930000015426447333273410996_);}
</style>
<g>
	<path class="st0" d="M470.57,102.38h10.08c3.78,0,6.41-1.72,6.41-5.27c0-3.55-2.63-5.27-6.41-5.27h-10.08V102.38z M470.57,120.59
		h13.4c7.1,0,10.77-3.67,10.77-10.77v-7.44h-0.23c-2.06,6.18-7.33,8.13-13.63,8.13h-9.96c-0.23,0-0.34,0.11-0.34,0.34V120.59z
		 M451.67,97.11l10.31,9.96V87.14L451.67,97.11z M416.62,120.59h45.36v-2.29c0-4.01,1.37-6.3,4.58-7.56v-0.23h-12.71
		c-0.69,0-0.92-0.11-1.37-0.57l-6.64-6.87l-6.87,6.99c-0.34,0.34-0.57,0.46-1.26,0.46H427.5c-0.57,0-0.57-0.34-0.23-0.69
		l13.06-12.71l-13.29-12.83c-0.34-0.34-0.23-0.69,0.34-0.69h10.31c0.57,0,0.8,0.11,1.15,0.46l7.22,7.22l6.76-7.22
		c0.34-0.34,0.57-0.46,1.03-0.46h26.92c6.18,0,11.68,2.06,13.74,8.25h0.23V51.18c0-7.1-3.67-10.77-10.77-10.77h-67.35
		c-7.1,0-10.77,3.67-10.77,10.77v58.64C405.86,116.92,409.52,120.59,416.62,120.59z"/>
	<rect x="357.32" y="15.15" class="st0" width="1.39" height="130.7"/>
	<g>
		<polygon class="st0" points="123.48,102.87 107.98,60.22 99.8,60.22 121.4,119.71 125.56,119.71 147.24,60.22 139.02,60.22 		"/>
		<polygon class="st0" points="307.3,60.22 303.14,60.22 281.54,119.71 289.72,119.71 305.22,77.06 320.76,119.71 328.98,119.71 		
			"/>
		<path class="st0" d="M204.05,68.36c-5.95-5.95-13.12-8.92-21.53-8.92c-8.4,0-15.58,2.98-21.53,8.92
			c-5.95,5.95-8.92,13.13-8.92,21.53c0,8.4,2.97,15.58,8.92,21.53c5.95,5.95,13.12,8.92,21.53,8.92c8.4,0,15.58-2.98,21.53-8.92
			c5.95-5.95,8.92-13.13,8.92-21.53C212.97,81.49,210,74.31,204.05,68.36z M198.57,105.95c-4.43,4.44-9.77,6.66-16.04,6.66
			c-6.25,0-11.59-2.22-16.03-6.66c-4.44-4.43-6.65-9.79-6.65-16.06c0-6.27,2.21-11.62,6.64-16.04c4.43-4.42,9.77-6.63,16.04-6.63
			c6.27,0,11.62,2.21,16.04,6.63c4.42,4.43,6.64,9.78,6.64,16.04C205.2,96.16,202.99,101.52,198.57,105.95z"/>
		<path class="st0" d="M265.99,90.41h7.7v21.16c-6.12,5.85-13.13,8.78-21.01,8.78c-8.4,0-15.57-2.96-21.49-8.89
			c-5.92-5.92-8.89-13.09-8.89-21.49c0-8.38,2.96-15.54,8.89-21.49c5.92-5.95,13.09-8.92,21.49-8.92c7.86,0,15.31,3.21,22.35,9.63
			l-5.76,5.24c-5.3-4.71-10.83-7.06-16.58-7.06c-6.22,0-11.55,2.21-15.97,6.62c-4.43,4.41-6.64,9.74-6.64,15.99
			c0,6.27,2.21,11.61,6.64,16.03c4.42,4.41,9.75,6.62,15.97,6.62c5.35,0,9.79-1.41,13.31-4.24V90.41z"/>
	</g>
	<g>
		<g>
			<g>
				<linearGradient id="SVGID_1_" gradientUnits="userSpaceOnUse" x1="54.9854" y1="33.1814" x2="54.9854" y2="127.6204">
					<stop  offset="0" style="stop-color:#10C6EB"/>
					<stop  offset="1" style="stop-color:#0689ED"/>
				</linearGradient>
				<polygon class="st1" points="64.55,53.01 72.84,53.01 45.54,120.34 37.13,120.34 				"/>
			</g>
			<g>
				
					<linearGradient id="SVGID_00000132772317123456980450000010475906214412417976_" gradientUnits="userSpaceOnUse" x1="69.534" y1="33.1814" x2="69.534" y2="127.6204">
					<stop  offset="0" style="stop-color:#10C6EB"/>
					<stop  offset="1" style="stop-color:#0689ED"/>
				</linearGradient>
				<polygon style="fill:url(#SVGID_00000132772317123456980450000010475906214412417976_);" points="81.61,40.66 89.9,40.66 
					57.59,120.34 49.17,120.34 				"/>
			</g>
			<g>
				<g>
					
						<linearGradient id="SVGID_00000131336699608755339790000006205125393624905892_" gradientUnits="userSpaceOnUse" x1="20.304" y1="33.1814" x2="20.304" y2="127.6204">
						<stop  offset="0" style="stop-color:#10C6EB"/>
						<stop  offset="1" style="stop-color:#0689ED"/>
					</linearGradient>
					<polygon style="fill:url(#SVGID_00000131336699608755339790000006205125393624905892_);" points="29.34,89.44 19.56,65.36 
						11.26,65.36 25.17,99.7 					"/>
				</g>
				<g>
					
						<linearGradient id="SVGID_00000072974087160062531610000009720148893486297225_" gradientUnits="userSpaceOnUse" x1="42.5712" y1="33.1814" x2="42.5712" y2="127.6204">
						<stop  offset="0" style="stop-color:#10C6EB"/>
						<stop  offset="1" style="stop-color:#0689ED"/>
					</linearGradient>
					<polygon style="fill:url(#SVGID_00000072974087160062531610000009720148893486297225_);" points="39.27,85.61 29.36,110.04 
						33.53,120.34 55.79,65.36 47.49,65.36 					"/>
				</g>
			</g>
		</g>
	</g>
</g>
</svg>
