<svg width="44" height="43" viewBox="0 0 44 43" fill="none" xmlns="http://www.w3.org/2000/svg">
<path d="M0.72876 21.1535C0.72876 32.7885 10.3163 42.2206 22.1431 42.2206C33.9698 42.2206 43.5574 32.7885 43.5574 21.1535C43.5574 9.51847 33.9698 0.0864258 22.1431 0.0864258C10.3163 0.0864258 0.72876 9.51847 0.72876 21.1535Z" fill="#FF0000"/>
<path d="M32.3149 16.0184C32.0472 15.0967 31.378 14.4384 30.4411 14.175C28.835 13.78 22.0092 13.78 22.0092 13.78C22.0092 13.78 15.3173 13.78 13.5774 14.175C12.6405 14.4384 11.9713 15.0967 11.7036 16.0184C11.4359 17.7301 11.4359 21.1535 11.4359 21.1535C11.4359 21.1535 11.4359 24.5769 11.8374 26.2886C12.1051 27.2103 12.7743 27.8686 13.7112 28.132C15.3172 28.527 22.1431 28.527 22.1431 28.527C22.1431 28.527 28.835 28.527 30.5749 28.132C31.5118 27.8686 32.181 27.2103 32.4487 26.2886C32.8502 24.5769 32.8502 21.1535 32.8502 21.1535C32.8502 21.1535 32.8502 17.7301 32.3149 16.0184ZM20.0016 24.3136V17.9934L25.6229 21.1535L20.0016 24.3136Z" fill="white"/>
</svg>
